<svg width="115" height="26" viewBox="0 0 115 26" fill="none" xmlns="http://www.w3.org/2000/svg">
<line x1="2" y1="5" x2="2" y2="21" stroke="url(#paint0_linear_2118_611)" stroke-width="4" stroke-linecap="round"/>
<line x1="12" y1="7" x2="12" y2="19" stroke="url(#paint1_linear_2118_611)" stroke-width="4" stroke-linecap="round"/>
<line x1="22" y1="9" x2="22" y2="17" stroke="url(#paint2_linear_2118_611)" stroke-width="4" stroke-linecap="round"/>
<path d="M40.8389 17.1543C40.8389 16.7246 40.7673 16.3415 40.624 16.0049C40.4808 15.6683 40.2445 15.3675 39.915 15.1025C39.5928 14.8304 39.1559 14.5798 38.6045 14.3506C38.0602 14.1143 37.3799 13.8815 36.5635 13.6523C35.7829 13.4303 35.0775 13.1868 34.4473 12.9219C33.8171 12.6569 33.2764 12.3525 32.8252 12.0088C32.3812 11.665 32.041 11.264 31.8047 10.8057C31.5684 10.3402 31.4502 9.79948 31.4502 9.18359C31.4502 8.58203 31.5791 8.03418 31.8369 7.54004C32.0947 7.0459 32.4564 6.61979 32.9219 6.26172C33.3945 5.90365 33.9495 5.62793 34.5869 5.43457C35.2314 5.24121 35.9368 5.14453 36.7031 5.14453C37.7988 5.14453 38.7441 5.35221 39.5391 5.76758C40.3411 6.18294 40.9606 6.74512 41.3975 7.4541C41.8415 8.15592 42.0635 8.94368 42.0635 9.81738H40.7422C40.7422 9.13704 40.5811 8.5319 40.2588 8.00195C39.9437 7.46484 39.4854 7.0459 38.8838 6.74512C38.2894 6.43717 37.5625 6.2832 36.7031 6.2832C35.8438 6.2832 35.1204 6.41569 34.5332 6.68066C33.9531 6.93848 33.5127 7.28581 33.2119 7.72266C32.9183 8.15234 32.7715 8.63216 32.7715 9.16211C32.7715 9.53451 32.8431 9.87826 32.9863 10.1934C33.1296 10.5013 33.3623 10.7913 33.6846 11.0635C34.014 11.3285 34.4473 11.5791 34.9844 11.8154C35.5215 12.0446 36.1839 12.263 36.9717 12.4707C37.8024 12.6999 38.54 12.9541 39.1846 13.2334C39.8291 13.5127 40.3734 13.835 40.8174 14.2002C41.2614 14.5583 41.598 14.9772 41.8271 15.457C42.0563 15.9368 42.1709 16.4954 42.1709 17.1328C42.1709 17.7702 42.0348 18.3431 41.7627 18.8516C41.4977 19.3529 41.1217 19.779 40.6348 20.1299C40.1549 20.4808 39.5856 20.7493 38.9268 20.9355C38.2751 21.1217 37.5625 21.2148 36.7891 21.2148C36.0944 21.2148 35.4033 21.1253 34.7158 20.9463C34.0283 20.7673 33.3981 20.4915 32.8252 20.1191C32.2594 19.7396 31.8047 19.2526 31.4609 18.6582C31.1243 18.0638 30.9561 17.3548 30.9561 16.5312H32.2666C32.2666 17.1901 32.3991 17.7451 32.6641 18.1963C32.929 18.6475 33.2799 19.0127 33.7168 19.292C34.1608 19.5713 34.6478 19.7754 35.1777 19.9043C35.7148 20.026 36.252 20.0869 36.7891 20.0869C37.6126 20.0869 38.3252 19.9652 38.9268 19.7217C39.5355 19.4782 40.0046 19.138 40.334 18.7012C40.6706 18.2572 40.8389 17.7415 40.8389 17.1543ZM46.1562 9.37695V21H44.8779V9.37695H46.1562ZM44.6523 6.01465C44.6523 5.77116 44.7275 5.56706 44.8779 5.40234C45.0355 5.23047 45.2503 5.14453 45.5225 5.14453C45.7946 5.14453 46.0094 5.23047 46.167 5.40234C46.3317 5.56706 46.4141 5.77116 46.4141 6.01465C46.4141 6.25098 46.3317 6.45508 46.167 6.62695C46.0094 6.79167 45.7946 6.87402 45.5225 6.87402C45.2503 6.87402 45.0355 6.79167 44.8779 6.62695C44.7275 6.45508 44.6523 6.25098 44.6523 6.01465ZM54.0625 9.37695V10.4297H48.2402V9.37695H54.0625ZM50.3779 6.39062H51.6562V18.1748C51.6562 18.7119 51.7279 19.1165 51.8711 19.3887C52.0143 19.6608 52.2005 19.8434 52.4297 19.9365C52.6589 20.0296 52.9059 20.0762 53.1709 20.0762C53.3643 20.0762 53.5505 20.0654 53.7295 20.0439C53.9085 20.0153 54.0697 19.9867 54.2129 19.958L54.2666 21.043C54.109 21.0931 53.9049 21.1325 53.6543 21.1611C53.4036 21.1969 53.153 21.2148 52.9023 21.2148C52.4082 21.2148 51.9714 21.1253 51.5918 20.9463C51.2122 20.7601 50.915 20.445 50.7002 20.001C50.4854 19.5498 50.3779 18.9375 50.3779 18.1641V6.39062ZM61.249 21.2148C60.4899 21.2148 59.7917 21.0752 59.1543 20.7959C58.5241 20.5166 57.9727 20.1227 57.5 19.6143C57.0345 19.1058 56.6729 18.5042 56.415 17.8096C56.1644 17.1077 56.0391 16.3415 56.0391 15.5107V15.0488C56.0391 14.1536 56.1715 13.3444 56.4365 12.6211C56.7015 11.8978 57.0667 11.2783 57.5322 10.7627C57.9977 10.2471 58.5277 9.85319 59.1221 9.58105C59.7236 9.30176 60.3538 9.16211 61.0127 9.16211C61.7503 9.16211 62.4056 9.2946 62.9785 9.55957C63.5514 9.81738 64.0312 10.1862 64.418 10.666C64.8118 11.1387 65.109 11.7008 65.3096 12.3525C65.5101 12.9971 65.6104 13.7096 65.6104 14.4902V15.2744H56.8125V14.1787H64.332V14.0283C64.3177 13.3766 64.1852 12.7679 63.9346 12.2021C63.6911 11.6292 63.3258 11.1637 62.8389 10.8057C62.3519 10.4476 61.7432 10.2686 61.0127 10.2686C60.4684 10.2686 59.9671 10.3831 59.5088 10.6123C59.0576 10.8415 58.6673 11.1709 58.3379 11.6006C58.0156 12.0231 57.765 12.528 57.5859 13.1152C57.4141 13.6953 57.3281 14.3398 57.3281 15.0488V15.5107C57.3281 16.1553 57.4212 16.7568 57.6074 17.3154C57.8008 17.8669 58.0729 18.3538 58.4238 18.7764C58.7819 19.1989 59.2044 19.5283 59.6914 19.7646C60.1784 20.001 60.7155 20.1191 61.3027 20.1191C61.9902 20.1191 62.599 19.9938 63.1289 19.7432C63.6589 19.4854 64.1351 19.0807 64.5576 18.5293L65.3633 19.1523C65.1126 19.5247 64.7975 19.8685 64.418 20.1836C64.0456 20.4987 63.598 20.7493 63.0752 20.9355C62.5524 21.1217 61.9437 21.2148 61.249 21.2148ZM77.8457 18.8623V21H69.9932V18.8623H77.8457ZM70.7451 5.35938V21H68.0488V5.35938H70.7451ZM79.1777 15.3174V15.0703C79.1777 14.2324 79.2995 13.4554 79.543 12.7393C79.7865 12.016 80.1374 11.3893 80.5957 10.8594C81.0612 10.3223 81.627 9.9069 82.293 9.61328C82.9661 9.3125 83.7253 9.16211 84.5703 9.16211C85.4225 9.16211 86.1816 9.3125 86.8477 9.61328C87.5208 9.9069 88.0902 10.3223 88.5557 10.8594C89.0212 11.3893 89.3757 12.016 89.6191 12.7393C89.8626 13.4554 89.9844 14.2324 89.9844 15.0703V15.3174C89.9844 16.1553 89.8626 16.9323 89.6191 17.6484C89.3757 18.3646 89.0212 18.9912 88.5557 19.5283C88.0902 20.0583 87.5244 20.4736 86.8584 20.7744C86.1924 21.068 85.4368 21.2148 84.5918 21.2148C83.7396 21.2148 82.9769 21.068 82.3037 20.7744C81.6377 20.4736 81.0719 20.0583 80.6064 19.5283C80.141 18.9912 79.7865 18.3646 79.543 17.6484C79.2995 16.9323 79.1777 16.1553 79.1777 15.3174ZM81.7666 15.0703V15.3174C81.7666 15.8402 81.8203 16.3343 81.9277 16.7998C82.0352 17.2653 82.2035 17.6735 82.4326 18.0244C82.6618 18.3753 82.9554 18.651 83.3135 18.8516C83.6715 19.0521 84.0977 19.1523 84.5918 19.1523C85.0716 19.1523 85.487 19.0521 85.8379 18.8516C86.196 18.651 86.4896 18.3753 86.7188 18.0244C86.9479 17.6735 87.1162 17.2653 87.2236 16.7998C87.3382 16.3343 87.3955 15.8402 87.3955 15.3174V15.0703C87.3955 14.5547 87.3382 14.0677 87.2236 13.6094C87.1162 13.1439 86.9443 12.7321 86.708 12.374C86.4788 12.016 86.1852 11.7367 85.8271 11.5361C85.4762 11.3285 85.0573 11.2246 84.5703 11.2246C84.0833 11.2246 83.6608 11.3285 83.3027 11.5361C82.9518 11.7367 82.6618 12.016 82.4326 12.374C82.2035 12.7321 82.0352 13.1439 81.9277 13.6094C81.8203 14.0677 81.7666 14.5547 81.7666 15.0703ZM99.5986 9.37695H101.951V20.6777C101.951 21.7233 101.729 22.6113 101.285 23.3418C100.841 24.0723 100.222 24.6273 99.4268 25.0068C98.6318 25.3936 97.7116 25.5869 96.666 25.5869C96.222 25.5869 95.7279 25.5225 95.1836 25.3936C94.6465 25.2646 94.1237 25.057 93.6152 24.7705C93.1139 24.4912 92.695 24.1224 92.3584 23.6641L93.5723 22.1387C93.9876 22.6328 94.446 22.9945 94.9473 23.2236C95.4486 23.4528 95.9749 23.5674 96.5264 23.5674C97.1208 23.5674 97.6257 23.4564 98.041 23.2344C98.4635 23.0195 98.7894 22.7008 99.0186 22.2783C99.2477 21.8558 99.3623 21.3402 99.3623 20.7314V12.0088L99.5986 9.37695ZM91.7031 15.3174V15.0918C91.7031 14.2109 91.8105 13.4089 92.0254 12.6855C92.2402 11.9551 92.5482 11.3285 92.9492 10.8057C93.3503 10.2757 93.8372 9.87109 94.4102 9.5918C94.9831 9.30534 95.6312 9.16211 96.3545 9.16211C97.1064 9.16211 97.7474 9.29818 98.2773 9.57031C98.8145 9.84245 99.262 10.2327 99.6201 10.7412C99.9782 11.2425 100.257 11.8441 100.458 12.5459C100.666 13.2406 100.82 14.014 100.92 14.8662V15.5859C100.827 16.4167 100.669 17.1758 100.447 17.8633C100.225 18.5508 99.9316 19.1452 99.5664 19.6465C99.2012 20.1478 98.75 20.5345 98.2129 20.8066C97.6829 21.0788 97.0563 21.2148 96.333 21.2148C95.624 21.2148 94.9831 21.068 94.4102 20.7744C93.8444 20.4808 93.3574 20.069 92.9492 19.5391C92.5482 19.0091 92.2402 18.3861 92.0254 17.6699C91.8105 16.9466 91.7031 16.1624 91.7031 15.3174ZM94.292 15.0918V15.3174C94.292 15.8473 94.3421 16.3415 94.4424 16.7998C94.5498 17.2581 94.7109 17.6628 94.9258 18.0137C95.1478 18.3574 95.4271 18.6296 95.7637 18.8301C96.1074 19.0234 96.512 19.1201 96.9775 19.1201C97.5863 19.1201 98.084 18.9912 98.4707 18.7334C98.8646 18.4756 99.1654 18.1283 99.373 17.6914C99.5879 17.2474 99.7383 16.7533 99.8242 16.209V14.2646C99.7812 13.8421 99.6917 13.4482 99.5557 13.083C99.4268 12.7178 99.2513 12.3991 99.0293 12.127C98.8073 11.8477 98.528 11.6328 98.1914 11.4824C97.8548 11.3249 97.4574 11.2461 96.999 11.2461C96.5335 11.2461 96.1289 11.3464 95.7852 11.5469C95.4414 11.7474 95.1585 12.0231 94.9365 12.374C94.7217 12.7249 94.5605 13.1331 94.4531 13.5986C94.3457 14.0641 94.292 14.5618 94.292 15.0918ZM104.143 15.3174V15.0703C104.143 14.2324 104.264 13.4554 104.508 12.7393C104.751 12.016 105.102 11.3893 105.561 10.8594C106.026 10.3223 106.592 9.9069 107.258 9.61328C107.931 9.3125 108.69 9.16211 109.535 9.16211C110.387 9.16211 111.146 9.3125 111.812 9.61328C112.486 9.9069 113.055 10.3223 113.521 10.8594C113.986 11.3893 114.34 12.016 114.584 12.7393C114.827 13.4554 114.949 14.2324 114.949 15.0703V15.3174C114.949 16.1553 114.827 16.9323 114.584 17.6484C114.34 18.3646 113.986 18.9912 113.521 19.5283C113.055 20.0583 112.489 20.4736 111.823 20.7744C111.157 21.068 110.402 21.2148 109.557 21.2148C108.704 21.2148 107.942 21.068 107.269 20.7744C106.603 20.4736 106.037 20.0583 105.571 19.5283C105.106 18.9912 104.751 18.3646 104.508 17.6484C104.264 16.9323 104.143 16.1553 104.143 15.3174ZM106.731 15.0703V15.3174C106.731 15.8402 106.785 16.3343 106.893 16.7998C107 17.2653 107.168 17.6735 107.397 18.0244C107.627 18.3753 107.92 18.651 108.278 18.8516C108.636 19.0521 109.062 19.1523 109.557 19.1523C110.036 19.1523 110.452 19.0521 110.803 18.8516C111.161 18.651 111.454 18.3753 111.684 18.0244C111.913 17.6735 112.081 17.2653 112.188 16.7998C112.303 16.3343 112.36 15.8402 112.36 15.3174V15.0703C112.36 14.5547 112.303 14.0677 112.188 13.6094C112.081 13.1439 111.909 12.7321 111.673 12.374C111.444 12.016 111.15 11.7367 110.792 11.5361C110.441 11.3285 110.022 11.2246 109.535 11.2246C109.048 11.2246 108.626 11.3285 108.268 11.5361C107.917 11.7367 107.627 12.016 107.397 12.374C107.168 12.7321 107 13.1439 106.893 13.6094C106.785 14.0677 106.731 14.5547 106.731 15.0703Z" fill="white"/>
<defs>
<linearGradient id="paint0_linear_2118_611" x1="-0.5" y1="3" x2="-0.5" y2="23" gradientUnits="userSpaceOnUse">
<stop stop-color="#EC008C"/>
<stop offset="1" stop-color="#FC6767"/>
</linearGradient>
<linearGradient id="paint1_linear_2118_611" x1="9.5" y1="5" x2="9.5" y2="21" gradientUnits="userSpaceOnUse">
<stop stop-color="#E65C00"/>
<stop offset="1" stop-color="#F9D423"/>
</linearGradient>
<linearGradient id="paint2_linear_2118_611" x1="19.5" y1="7" x2="19.5" y2="19" gradientUnits="userSpaceOnUse">
<stop stop-color="#00D2FF"/>
<stop offset="1" stop-color="#3A7BD5"/>
</linearGradient>
</defs>
</svg>
