<svg width="1600" height="603" viewBox="0 0 1600 603" fill="none" xmlns="http://www.w3.org/2000/svg">
<path d="M0 4L88.8908 74.5681C177.776 145.148 355.558 286.284 533.333 353.413C711.109 420.542 888.891 413.665 1066.67 372.355C1244.44 331.044 1422.22 255.301 1511.11 217.441L1600 179.569" stroke="#FFDD95" stroke-opacity="0.41" stroke-width="8"/>
<path d="M0 603L88.8908 537.595C177.776 472.18 355.558 341.371 533.333 255.3C711.109 169.241 888.891 127.93 1066.67 170.966C1244.44 213.99 1422.22 341.371 1511.11 405.05L1600 468.741" stroke="#FFDD95" stroke-opacity="0.41" stroke-width="8"/>
<path d="M0 437.759L88.8908 454.975C177.776 472.181 355.558 506.613 533.333 528.982C711.109 551.363 888.891 561.69 1066.67 528.982C1244.44 496.286 1422.22 420.543 1511.11 382.682L1600 344.811" stroke="#FFDD95" stroke-opacity="0.41" stroke-width="8"/>
</svg>
