<svg width="18" height="18" viewBox="0 0 18 18" fill="none" xmlns="http://www.w3.org/2000/svg">
<path d="M6.53827 7C8.06768 7 9.3075 5.65685 9.3075 4C9.3075 2.34315 8.06768 1 6.53827 1C5.00887 1 3.76904 2.34315 3.76904 4C3.76904 5.65685 5.00887 7 6.53827 7Z" stroke="#9FA2B4" stroke-linecap="round" stroke-linejoin="round"/>
<path d="M12.0769 17H1V15.6667C1 14.0754 1.58351 12.5493 2.62218 11.424C3.66084 10.2988 5.06957 9.66669 6.53846 9.66669C8.00735 9.66669 9.41608 10.2988 10.4547 11.424C11.4934 12.5493 12.0769 14.0754 12.0769 15.6667V17Z" stroke="#9FA2B4" stroke-linecap="round" stroke-linejoin="round"/>
<path d="M11.4614 1C12.1959 1 12.9002 1.31607 13.4196 1.87868C13.9389 2.44129 14.2307 3.20435 14.2307 4C14.2307 4.79565 13.9389 5.55871 13.4196 6.12132C12.9002 6.68393 12.1959 7 11.4614 7" stroke="#9FA2B4" stroke-linecap="round" stroke-linejoin="round"/>
<path d="M13.4307 9.91998C14.4791 10.352 15.3817 11.1188 16.019 12.1188C16.6564 13.1187 16.9984 14.3048 16.9999 15.52V17H15.1537" stroke="#9FA2B4" stroke-linecap="round" stroke-linejoin="round"/>
</svg>
