<svg width="15" height="14" viewBox="0 0 15 14" fill="none" xmlns="http://www.w3.org/2000/svg">
<path fill-rule="evenodd" clip-rule="evenodd" d="M7.21407 0.271001L5.30214 4.3819L0.737559 4.96983C0.649251 4.98087 0.565996 5.01713 0.497763 5.07426C0.42953 5.1314 0.379212 5.20699 0.352834 5.29198C0.326456 5.37698 0.325136 5.46778 0.349032 5.5535C0.372929 5.63923 0.421029 5.71625 0.487572 5.77535L3.86703 8.81686L2.95504 13.3768C2.93786 13.464 2.94613 13.5543 2.97888 13.6369C3.01162 13.7195 3.06744 13.7909 3.13968 13.8427C3.21193 13.8944 3.29753 13.9243 3.38628 13.9287C3.47503 13.9331 3.56317 13.9118 3.64019 13.8675L7.63072 11.5528L11.6259 13.8675C11.7029 13.9118 11.791 13.9331 11.8798 13.9287C11.9685 13.9243 12.0541 13.8944 12.1264 13.8427C12.1986 13.7909 12.2544 13.7195 12.2872 13.6369C12.3199 13.5543 12.3282 13.464 12.311 13.3768L11.399 8.81686L14.7785 5.77535C14.8437 5.71569 14.8905 5.63862 14.9133 5.55324C14.9361 5.46786 14.934 5.37773 14.9072 5.29351C14.8804 5.20929 14.8301 5.13449 14.7622 5.07796C14.6943 5.02142 14.6116 4.98551 14.5239 4.97446L9.9593 4.3819L8.05199 0.271001C8.01517 0.190177 7.95587 0.121652 7.88118 0.073601C7.80648 0.0255496 7.71954 0 7.63072 0C7.5419 0 7.45496 0.0255496 7.38026 0.073601C7.30557 0.121652 7.24627 0.190177 7.20944 0.271001H7.21407Z" fill="#3A7BD5"/>
</svg>
