<svg width="24" height="24" viewBox="0 0 24 24" fill="none" xmlns="http://www.w3.org/2000/svg">
<g clip-path="url(#clip0_2090_1645)">
<path d="M7 22H5C4.20435 22 3.44129 21.6839 2.87868 21.1213C2.31607 20.5587 2 19.7956 2 19V5C2 4.20435 2.31607 3.44129 2.87868 2.87868C3.44129 2.31607 4.20435 2 5 2H7C7.26522 2 7.51957 1.89464 7.70711 1.70711C7.89464 1.51957 8 1.26522 8 1C8 0.734784 7.89464 0.48043 7.70711 0.292893C7.51957 0.105357 7.26522 0 7 0L5 0C3.6744 0.00158786 2.40356 0.528882 1.46622 1.46622C0.528882 2.40356 0.00158786 3.6744 0 5L0 19C0.00158786 20.3256 0.528882 21.5964 1.46622 22.5338C2.40356 23.4711 3.6744 23.9984 5 24H7C7.26522 24 7.51957 23.8946 7.70711 23.7071C7.89464 23.5196 8 23.2652 8 23C8 22.7348 7.89464 22.4804 7.70711 22.2929C7.51957 22.1054 7.26522 22 7 22Z" fill="#9FA2B4"/>
<path d="M23.0001 11.0002L7.22306 11.0322C7.31077 10.8693 7.42046 10.7192 7.54906 10.5862L11.4281 6.7072C11.5236 6.61496 11.5998 6.50461 11.6522 6.38261C11.7046 6.2606 11.7322 6.12938 11.7333 5.9966C11.7345 5.86383 11.7092 5.73215 11.6589 5.60925C11.6086 5.48635 11.5343 5.3747 11.4405 5.28081C11.3466 5.18692 11.2349 5.11266 11.112 5.06238C10.9891 5.0121 10.8574 4.9868 10.7247 4.98795C10.5919 4.98911 10.4607 5.01669 10.3387 5.0691C10.2167 5.12151 10.1063 5.19769 10.0141 5.2932L6.13306 9.1722C5.38318 9.92231 4.96191 10.9395 4.96191 12.0002C4.96191 13.0609 5.38318 14.0781 6.13306 14.8282L10.0121 18.7072C10.1043 18.8027 10.2147 18.8789 10.3367 18.9313C10.4587 18.9837 10.5899 19.0113 10.7227 19.0125C10.8554 19.0136 10.9871 18.9883 11.11 18.938C11.2329 18.8877 11.3446 18.8135 11.4385 18.7196C11.5323 18.6257 11.6066 18.5141 11.6569 18.3912C11.7072 18.2683 11.7325 18.1366 11.7313 18.0038C11.7302 17.871 11.7026 17.7398 11.6502 17.6178C11.5978 17.4958 11.5216 17.3855 11.4261 17.2932L7.54706 13.4142C7.43514 13.299 7.33745 13.1707 7.25606 13.0322L23.0001 13.0002C23.2653 13.0002 23.5196 12.8948 23.7072 12.7073C23.8947 12.5198 24.0001 12.2654 24.0001 12.0002C24.0001 11.735 23.8947 11.4806 23.7072 11.2931C23.5196 11.1056 23.2653 11.0002 23.0001 11.0002Z" fill="#9FA2B4"/>
</g>
<defs>
<clipPath id="clip0_2090_1645">
<rect width="24" height="24" fill="white"/>
</clipPath>
</defs>
</svg>
