<svg width="24" height="24" viewBox="0 0 24 24" fill="none" xmlns="http://www.w3.org/2000/svg">
<path d="M23.2849 13.5H12.8162L19.7881 20.9077C20.0546 21.1908 20.4931 21.2138 20.7671 20.9396C22.4744 19.2305 23.6488 16.9266 23.9934 14.3367C24.0525 13.8933 23.7062 13.5 23.2849 13.5ZM22.5865 10.4624C22.223 4.86269 18.0115 0.387949 12.7412 0.00169502C12.3389 -0.0278365 12.0001 0.332636 12.0001 0.761078V11.2499H21.8722C22.2755 11.2499 22.6143 10.8899 22.5865 10.4624ZM9.88242 13.5V2.37688C9.88242 1.92922 9.51227 1.56124 9.09536 1.62406C3.83788 2.41344 -0.180785 7.29365 0.00627287 13.1423C0.198625 19.1489 5.06611 24.0746 10.722 23.9991C12.9455 23.9696 15 23.2084 16.6893 21.9352C17.0378 21.6727 17.0608 21.1275 16.7586 20.8065L9.88242 13.5Z" fill="#9FA2B4"/>
</svg>
