<svg width="26" height="26" viewBox="0 0 26 26" fill="none" xmlns="http://www.w3.org/2000/svg">
<path d="M19.6883 14.9049C19.6927 13.698 19.3782 12.5118 18.7774 11.4693C18.1766 10.4268 17.3113 9.56576 16.2711 8.97551C15.231 8.38527 14.0538 8.08724 12.8615 8.1123C11.6693 8.13736 10.5053 8.48461 9.49027 9.11806C8.47521 9.75151 7.64597 10.6481 7.08844 11.715C6.53091 12.7819 6.26538 13.9803 6.31936 15.186C6.37333 16.3916 6.74485 17.5608 7.39543 18.5723C8.046 19.5838 8.95196 20.4008 10.0195 20.9388V24.2651C10.0244 24.4618 10.1052 24.6487 10.2444 24.786C10.3836 24.9233 10.5703 25.0001 10.7647 25H15.236C15.4304 25.0001 15.6171 24.9233 15.7563 24.786C15.8956 24.6487 15.9763 24.4618 15.9812 24.2651V20.8807C17.0823 20.326 18.011 19.4747 18.665 18.4204C19.319 17.3661 19.6731 16.1497 19.6883 14.9049V14.9049Z" stroke="#9FA2B4" stroke-linecap="round" stroke-linejoin="round"/>
<path d="M13.001 1V3.90089" stroke="#9FA2B4" stroke-linecap="round" stroke-linejoin="round"/>
<path d="M20.6427 3.7655L18.6172 5.8348" stroke="#9FA2B4" stroke-linecap="round" stroke-linejoin="round"/>
<path d="M24.9991 9.76068H22.1328" stroke="#9FA2B4" stroke-linecap="round" stroke-linejoin="round"/>
<path d="M5.35742 3.7655L7.3829 5.8348" stroke="#9FA2B4" stroke-linecap="round" stroke-linejoin="round"/>
<path d="M1 9.76068H3.86624" stroke="#9FA2B4" stroke-linecap="round" stroke-linejoin="round"/>
</svg>
