<svg width="24" height="24" viewBox="0 0 24 24" fill="none" xmlns="http://www.w3.org/2000/svg">
<path d="M20 0H14.6667V1C14.6667 1.53043 14.3857 2.03914 13.8856 2.41421C13.3855 2.78929 12.7072 3 12 3C11.2928 3 10.6145 2.78929 10.1144 2.41421C9.61429 2.03914 9.33333 1.53043 9.33333 1V0H4C2.93913 0 1.92172 0.31607 1.17157 0.87868C0.421427 1.44129 0 2.20435 0 3V24H9.33333V23C9.33333 22.4696 9.61429 21.9609 10.1144 21.5858C10.6145 21.2107 11.2928 21 12 21C12.7072 21 13.3855 21.2107 13.8856 21.5858C14.3857 21.9609 14.6667 22.4696 14.6667 23V24H24V3C24 2.20435 23.5786 1.44129 22.8284 0.87868C22.0783 0.31607 21.0609 0 20 0ZM17.1653 22.5C16.8707 21.6405 16.2033 20.3789 15.2681 19.835C14.333 19.2912 13.1833 18.9961 12 18.9961C10.8167 18.9961 9.66698 19.2912 8.73187 19.835C7.79675 20.3789 7.12933 21.6405 6.83467 22.5H2V17H6V15H2V9V3C2 2.73478 2.24995 2.37156 2.5 2.18402C2.75005 1.99649 3.64638 2 4 2H6.83467C7.12933 2.85953 7.79675 3.62115 8.73187 4.16498C9.66698 4.7088 10.8167 5 12 5C13.1833 5 14.333 4.7088 15.2681 4.16498C16.2033 3.62115 16.8707 2.85953 17.1653 2H20C20.3536 2 21.0833 1.99649 21.3333 2.18402C21.5834 2.37156 22 2.73478 22 3V15H18V17H22V22.5H17.1653Z" fill="#9FA2B4"/>
<path d="M14.5 15H9.5V17H14.5V15Z" fill="#9FA2B4"/>
</svg>
