<svg width="26" height="26" viewBox="0 0 26 26" fill="none" xmlns="http://www.w3.org/2000/svg">
<path d="M6.17132 19.8287H3.47375C2.79939 19.7725 2.17076 19.465 1.71254 18.967C1.25433 18.4691 1 17.8171 1 17.1404C1 16.4637 1.25433 15.8117 1.71254 15.3138C2.17076 14.8158 2.79939 14.5083 3.47375 14.4521H7.75266L10.506 11.6987L2.95284 7.04775C2.37135 6.68828 1.94803 6.12145 1.76845 5.46183C1.58886 4.80221 1.66642 4.09902 1.98543 3.49439C2.12625 3.14836 2.33648 2.83485 2.60314 2.57321C2.86981 2.31156 3.18725 2.10733 3.53589 1.9731C3.88453 1.83888 4.25698 1.7775 4.63025 1.79277C5.00352 1.80804 5.36971 1.89963 5.70622 2.06188L15.5663 6.61985L20.3289 1.80143C20.8421 1.28828 21.5381 1 22.2638 1C22.9895 1 23.6854 1.28828 24.1986 1.80143C24.7117 2.31457 25 3.01054 25 3.73624C25 4.46193 24.7117 5.15791 24.1986 5.67105L19.3801 10.4337L23.9381 20.3868C24.0881 20.7182 24.1699 21.0764 24.1788 21.4401C24.1876 21.8038 24.1233 22.1655 23.9897 22.5039C23.8561 22.8423 23.6559 23.1503 23.401 23.4098C23.146 23.6693 22.8415 23.875 22.5056 24.0146C21.901 24.3336 21.1978 24.4111 20.5382 24.2316C19.8786 24.052 19.3117 23.6287 18.9523 23.0472L14.3013 15.4939L11.5479 18.2473V22.5263C11.4917 23.2006 11.1842 23.8292 10.6862 24.2875C10.1883 24.7457 9.53629 25 8.8596 25C8.1829 25 7.53092 24.7457 7.03297 24.2875C6.53502 23.8292 6.22747 23.2006 6.17132 22.5263V19.8287Z" stroke="#9FA2B4" stroke-linecap="round" stroke-linejoin="round"/>
</svg>
