<svg width="26" height="26" viewBox="0 0 26 26" fill="none" xmlns="http://www.w3.org/2000/svg">
<path d="M9.30683 9.30783C11.6008 9.30783 13.4603 7.44806 13.4603 5.15391C13.4603 2.85977 11.6008 1 9.30683 1C7.01291 1 5.15332 2.85977 5.15332 5.15391C5.15332 7.44806 7.01291 9.30783 9.30683 9.30783Z" stroke="#DDE2FF" stroke-linecap="round" stroke-linejoin="round"/>
<path d="M11.1531 12.2802C9.9358 11.9991 8.67076 11.9969 7.4525 12.2737C6.23425 12.5505 5.09432 13.099 4.11792 13.8785C3.14153 14.6579 2.35393 15.648 1.81402 16.7747C1.27411 17.9014 0.995852 19.1355 1.00005 20.385V23.1542H11.1531" stroke="#DDE2FF" stroke-linecap="round" stroke-linejoin="round"/>
<path d="M19.7736 24.945C19.5709 25.0183 19.3488 25.0183 19.146 24.945C17.6065 24.3351 16.2855 23.2769 15.3541 21.9077C14.4226 20.5384 13.9237 18.921 13.9218 17.2649V14.8464C13.9137 14.723 13.9319 14.5994 13.9754 14.4837C14.0189 14.368 14.0867 14.2629 14.174 14.1755C14.2614 14.0881 14.3665 14.0204 14.4822 13.9769C14.5979 13.9334 14.7215 13.9151 14.8448 13.9233H24.0748C24.1982 13.9151 24.3218 13.9334 24.4375 13.9769C24.5532 14.0204 24.6582 14.0881 24.7456 14.1755C24.833 14.2629 24.9007 14.368 24.9442 14.4837C24.9877 14.5994 25.006 14.723 24.9978 14.8464V17.2649C24.996 18.921 24.497 20.5384 23.5656 21.9077C22.6342 23.2769 21.3132 24.3351 19.7736 24.945V24.945Z" stroke="#DDE2FF" stroke-linecap="round" stroke-linejoin="round"/>
</svg>
