<svg width="26" height="26" viewBox="0 0 26 26" fill="none" xmlns="http://www.w3.org/2000/svg">
<path d="M9.30814 10C11.6022 10 13.462 7.98528 13.462 5.5C13.462 3.01472 11.6022 1 9.30814 1C7.01404 1 5.1543 3.01472 5.1543 5.5C5.1543 7.98528 7.01404 10 9.30814 10Z" stroke="#DDE2FF" stroke-linecap="round" stroke-linejoin="round"/>
<path d="M17.6154 25H1V23C1 20.6131 1.87527 18.3239 3.43327 16.6361C4.99126 14.9482 7.10436 14 9.30769 14C11.511 14 13.6241 14.9482 15.1821 16.6361C16.7401 18.3239 17.6154 20.6131 17.6154 23V25Z" stroke="#DDE2FF" stroke-linecap="round" stroke-linejoin="round"/>
<path d="M16.6934 1C17.795 1 18.8516 1.47411 19.6306 2.31802C20.4096 3.16193 20.8472 4.30653 20.8472 5.5C20.8472 6.69347 20.4096 7.83807 19.6306 8.68198C18.8516 9.52589 17.795 10 16.6934 10" stroke="#DDE2FF" stroke-linecap="round" stroke-linejoin="round"/>
<path d="M19.6465 14.38C21.2191 15.0281 22.573 16.1782 23.529 17.6782C24.485 19.1781 24.9981 20.9572 25.0003 22.78V25H22.2311" stroke="#DDE2FF" stroke-linecap="round" stroke-linejoin="round"/>
</svg>
