<svg width="26" height="26" viewBox="0 0 26 26" fill="none" xmlns="http://www.w3.org/2000/svg">
<path d="M24.0767 6.53847H14.8459C14.3361 6.53847 13.9229 6.95174 13.9229 7.46154V13.9231C13.9229 14.4329 14.3361 14.8462 14.8459 14.8462H24.0767C24.5865 14.8462 24.9998 14.4329 24.9998 13.9231V7.46154C24.9998 6.95174 24.5865 6.53847 24.0767 6.53847Z" stroke="#DDE2FF" stroke-linecap="round" stroke-linejoin="round"/>
<path d="M15.7695 6.53846V4.69231C15.7695 3.71305 16.1585 2.77389 16.851 2.08145C17.5434 1.38901 18.4826 1 19.4618 1C20.4411 1 21.3803 1.38901 22.0727 2.08145C22.7651 2.77389 23.1541 3.71305 23.1541 4.69231V6.53846" stroke="#DDE2FF" stroke-linecap="round" stroke-linejoin="round"/>
<path d="M1 15.7692H6.53846C7.14456 15.7692 7.74473 15.8886 8.30469 16.1206C8.86466 16.3525 9.37345 16.6925 9.80203 17.121C10.2306 17.5496 10.5706 18.0584 10.8025 18.6184C11.0345 19.1783 11.1538 19.7785 11.1538 20.3846V20.3846" stroke="#DDE2FF" stroke-linecap="round" stroke-linejoin="round"/>
<path d="M5.61538 20.3846H14.8462C15.8254 20.3846 16.7646 20.7736 17.457 21.4661C18.1495 22.1585 18.5385 23.0977 18.5385 24.0769C18.5385 24.3217 18.4412 24.5565 18.2681 24.7296C18.095 24.9027 17.8602 25 17.6154 25H1" stroke="#DDE2FF" stroke-linecap="round" stroke-linejoin="round"/>
</svg>
