<svg width="24" height="25" viewBox="0 0 24 25" fill="none" xmlns="http://www.w3.org/2000/svg">
<path d="M23.2849 14.2354H12.8162L19.7881 21.6432C20.0546 21.9263 20.4931 21.9493 20.7671 21.6751C22.4744 19.966 23.6488 17.662 23.9934 15.0722C24.0525 14.6287 23.7062 14.2354 23.2849 14.2354ZM22.5865 11.1979C22.223 5.59816 18.0115 1.12342 12.7412 0.737169C12.3389 0.707637 12.0001 1.06811 12.0001 1.49655V11.9854H21.8722C22.2755 11.9854 22.6143 11.6254 22.5865 11.1979ZM9.88242 14.2354V3.11235C9.88242 2.66469 9.51227 2.29672 9.09536 2.35953C3.83788 3.14891 -0.180785 8.02912 0.00627287 13.8778C0.198625 19.8844 5.06611 24.8101 10.722 24.7346C12.9455 24.7051 15 23.9438 16.6893 22.6707C17.0378 22.4082 17.0608 21.863 16.7586 21.5419L9.88242 14.2354Z" fill="#DDE2FF"/>
</svg>
