<svg width="24" height="25" viewBox="0 0 24 25" fill="none" xmlns="http://www.w3.org/2000/svg">
<path d="M20 0.5H14.6667V1.5C14.6667 2.03043 14.3857 2.53914 13.8856 2.91421C13.3855 3.28929 12.7072 3.5 12 3.5C11.2928 3.5 10.6145 3.28929 10.1144 2.91421C9.61429 2.53914 9.33333 2.03043 9.33333 1.5V0.5H4C2.93913 0.5 1.92172 0.81607 1.17157 1.37868C0.421427 1.94129 0 2.70435 0 3.5V24.5H9.33333V23.5C9.33333 22.9696 9.61429 22.4609 10.1144 22.0858C10.6145 21.7107 11.2928 21.5 12 21.5C12.7072 21.5 13.3855 21.7107 13.8856 22.0858C14.3857 22.4609 14.6667 22.9696 14.6667 23.5V24.5H24V3.5C24 2.70435 23.5786 1.94129 22.8284 1.37868C22.0783 0.81607 21.0609 0.5 20 0.5ZM17.1653 23C16.8707 22.1405 16.2033 20.8789 15.2681 20.335C14.333 19.7912 13.1833 19.4961 12 19.4961C10.8167 19.4961 9.66698 19.7912 8.73187 20.335C7.79675 20.8789 7.12933 22.1405 6.83467 23H2V17.5H6V15.5H2V9.5V3.5C2 3.23478 2.24995 2.87156 2.5 2.68402C2.75005 2.49649 3.64638 2.5 4 2.5H6.83467C7.12933 3.35953 7.79675 4.12115 8.73187 4.66498C9.66698 5.2088 10.8167 5.5 12 5.5C13.1833 5.5 14.333 5.2088 15.2681 4.66498C16.2033 4.12115 16.8707 3.35953 17.1653 2.5H20C20.3536 2.5 21.0833 2.49649 21.3333 2.68402C21.5834 2.87156 22 3.23478 22 3.5V15.5H18V17.5H22V23H17.1653Z" fill="#DDE2FF"/>
<path d="M14.5 15.5H9.5V17.5H14.5V15.5Z" fill="#DDE2FF"/>
</svg>
